<svg width="210px" height="96px" xmlns="http://www.w3.org/2000/svg" xmlns:xlink="http://www.w3.org/1999/xlink" fill="#fff">
  <g>
    <path d="M60.738281,16.136719 C61.699224,15.316402,62.583980,14.906250,63.392578,14.906250 C64.201176,14.906250,64.880857,15.099607,65.431641,15.486328 C65.982425,15.873049,66.433592,16.382809,66.785156,17.015625 C67.464847,18.234381,67.804688,19.775381,67.804688,21.638672 C67.804688,23.501962,67.500003,25.529286,66.890625,27.720703 C66.281247,29.912120,65.460943,32.150379,64.429688,34.435547 C63.398432,36.720715,62.203132,39.023426,60.843750,41.343750 C59.484368,43.664074,58.048836,45.937489,56.537109,48.164062 C55.025383,50.390636,53.484383,52.552724,51.914062,54.650391 C50.343742,56.748057,48.832039,58.710928,47.378906,60.539062 C45.925774,62.367197,44.583991,64.031242,43.353516,65.531250 C42.123041,67.031257,41.085942,68.320307,40.242188,69.398438 C38.109364,73.710959,35.753919,75.867188,33.175781,75.867188 C31.464835,75.867188,29.425793,75.035165,27.058594,73.371094 C24.597644,71.636710,23.367188,70.031257,23.367188,68.554688 C23.367188,67.335931,24.269522,65.929695,26.074219,64.335938 C26.519533,63.914060,26.917967,63.597657,27.269531,63.386719 C29.707043,59.027322,31.699211,53.109412,33.246094,45.632812 C34.113286,41.390604,34.546875,37.488299,34.546875,33.925781 C34.546875,28.160127,33.339856,24.234385,30.925781,22.148438 C29.800776,21.187495,28.535163,20.707031,27.128906,20.707031 C25.722649,20.707031,24.445318,21.023434,23.296875,21.656250 C22.148432,22.289066,21.082036,23.156244,20.097656,24.257812 C17.871083,26.765638,16.757812,29.578109,16.757812,32.695312 C16.757812,35.273450,17.964832,37.710926,20.378906,40.007812 C19.488277,41.226569,18.105478,42.257808,16.230469,43.101562 C15.691404,43.335939,15.152346,43.453125,14.613281,43.453125 C14.074216,43.453125,13.458988,43.289064,12.767578,42.960938 C12.076168,42.632811,11.449222,42.164066,10.886719,41.554688 C9.691400,40.171868,9.093750,38.566415,9.093750,36.738281 C9.093750,34.910147,9.345701,33.210945,9.849609,31.640625 C10.353518,30.070305,11.050777,28.570320,11.941406,27.140625 C12.832036,25.710930,13.874994,24.386725,15.070312,23.167969 C16.265631,21.949213,17.542962,20.882817,18.902344,19.968750 C21.808608,18.070303,24.603502,17.121094,27.287109,17.121094 C29.970717,17.121094,32.244131,17.613276,34.107422,18.597656 C35.970712,19.582036,37.576165,20.923820,38.923828,22.623047 C40.271491,24.322274,41.378902,26.320301,42.246094,28.617188 C44.074228,33.421899,44.988281,39.058561,44.988281,45.527344 C44.988281,47.824230,44.871095,50.097645,44.636719,52.347656 C49.980495,47.308569,54.058580,42.703146,56.871094,38.531250 C60.644550,32.929659,62.531250,27.679712,62.531250,22.781250 C62.531250,19.992174,61.933600,17.777352,60.738281,16.136719 Z"></path>
    <path d="M90.902344,33.222656 C89.941401,33.691409,88.904302,34.048827,87.791016,34.294922 C86.677729,34.541017,85.710942,34.664062,84.890625,34.664062 C84.070308,34.664062,83.332035,34.564454,82.675781,34.365234 C82.019528,34.166015,81.433596,33.878908,80.917969,33.503906 C79.792963,32.683590,79.230469,31.699224,79.230469,30.550781 C79.230469,29.402338,79.435545,28.429691,79.845703,27.632812 C80.255861,26.835934,80.847652,26.156253,81.621094,25.593750 C83.285165,24.374994,85.283191,23.765625,87.615234,23.765625 C89.947277,23.765625,91.646479,24.246089,92.712891,25.207031 C93.779302,26.167974,94.312500,27.269525,94.312500,28.511719 C94.312500,29.753912,93.984378,30.726559,93.328125,31.429688 C92.671872,32.132816,91.863286,32.730466,90.902344,33.222656 Z M63.832031,67.921875 C63.339841,66.867182,63.093750,65.572273,63.093750,64.037109 C63.093750,62.501945,63.427731,60.878915,64.095703,59.167969 C64.763675,57.457023,65.619135,55.751962,66.662109,54.052734 C67.705083,52.353507,68.871087,50.712899,70.160156,49.130859 C71.449225,47.548820,72.726556,46.148444,73.992188,44.929688 C76.781264,42.281237,78.832025,40.957031,80.144531,40.957031 C80.707034,40.957031,81.333981,41.197263,82.025391,41.677734 C82.716800,42.158206,83.156249,42.515624,83.343750,42.750000 C79.804670,46.546894,77.566411,50.214826,76.628906,53.753906 C76.324217,54.832037,76.171875,55.880854,76.171875,56.900391 C76.171875,57.919927,76.558590,58.833980,77.332031,59.642578 C78.105473,60.451176,79.066401,60.855469,80.214844,60.855469 C81.363287,60.855469,82.435542,60.638674,83.431641,60.205078 C84.427739,59.771482,85.406245,59.203129,86.367188,58.500000 C88.265634,57.070305,89.929680,55.289073,91.359375,53.156250 C92.414068,53.085937,92.941406,53.519527,92.941406,54.457031 C92.941406,55.230473,92.455083,56.449210,91.482422,58.113281 C90.509761,59.777352,89.542974,61.212885,88.582031,62.419922 C87.621089,63.626959,86.525397,64.816400,85.294922,65.988281 C84.064447,67.160162,82.722664,68.203120,81.269531,69.117188 C78.011702,71.179698,74.660173,72.210938,71.214844,72.210938 C67.582013,72.210938,65.121100,70.781264,63.832031,67.921875 Z"></path>
    <path d="M96.492188,67.957031 C92.835919,70.652357,90.363288,72.000000,89.074219,72.000000 C87.738275,72.000000,86.683598,71.250007,85.910156,69.750000 C85.253903,68.437493,84.925781,66.978524,84.925781,65.373047 C84.925781,63.767570,85.166013,62.232429,85.646484,60.767578 C86.126956,59.302727,86.753902,57.984381,87.527344,56.812500 C89.285165,54.164049,91.148428,52.839844,93.117188,52.839844 C93.843754,52.839844,95.021476,53.279292,96.650391,54.158203 C98.279305,55.037114,99.503902,55.687498,100.324219,56.109375 C108.058632,51.492164,112.335933,47.777358,113.156250,44.964844 C112.617185,44.824218,111.943363,44.753906,111.134766,44.753906 C110.326168,44.753906,109.529301,44.777344,108.744141,44.824219 C107.958980,44.871094,107.056646,44.953124,106.037109,45.070312 C105.017573,45.187501,103.992193,45.328124,102.960938,45.492188 C100.734364,45.890627,98.894539,46.312498,97.441406,46.757812 C97.089842,46.242185,96.914062,45.539067,96.914062,44.648438 C96.914062,42.960929,97.230466,42.035157,97.863281,41.871094 C101.050797,41.097652,104.062486,40.710938,106.898438,40.710938 C113.343782,40.710938,116.824216,41.226557,117.339844,42.257812 C117.644533,42.890628,117.796875,43.675777,117.796875,44.613281 C117.796875,47.425795,114.128943,52.324184,106.792969,59.308594 C109.277356,60.339849,111.134759,60.855469,112.365234,60.855469 C113.595709,60.855469,114.708979,60.638674,115.705078,60.205078 C116.701177,59.771482,117.679683,59.203129,118.640625,58.500000 C120.539072,57.070305,122.203118,55.289073,123.632812,53.156250 C124.265628,53.109375,124.687499,53.226561,124.898438,53.507812 C125.109376,53.789064,125.214844,54.093748,125.214844,54.421875 C125.214844,54.750002,125.062502,55.289059,124.757812,56.039062 C124.453123,56.789066,123.966800,57.732416,123.298828,58.869141 C122.630856,60.005865,121.839848,61.171869,120.925781,62.367188 C120.011714,63.562506,118.992193,64.734369,117.867188,65.882812 C116.742182,67.031256,115.535163,68.062495,114.246094,68.976562 C111.433580,70.992198,108.591811,72.000000,105.720703,72.000000 C102.849595,72.000000,99.773454,70.652357,96.492188,67.957031 Z"></path>
    <path d="M125.601562,74.179688 C124.828121,73.617185,124.289064,73.060550,123.984375,72.509766 C123.679686,71.958982,123.527344,71.273442,123.527344,70.453125 C123.527344,69.632808,123.808591,68.765630,124.371094,67.851562 C124.933597,66.937495,125.683589,66.117191,126.621094,65.390625 C128.753917,63.773429,130.980457,62.964844,133.300781,62.964844 C135.621105,62.964844,137.314448,63.445308,138.380859,64.406250 C139.447271,65.367192,139.980469,66.621086,139.980469,68.167969 C139.980469,69.925790,138.644545,71.542961,135.972656,73.019531 C133.511706,74.378913,131.191417,75.058594,129.011719,75.058594 C127.535149,75.058594,126.398441,74.765628,125.601562,74.179688 Z"></path>
    <path d="M169.371094,33.082031 C168.457027,33.574221,167.466802,33.960936,166.400391,34.242188 C165.333979,34.523439,164.390629,34.664062,163.570312,34.664062 C162.749996,34.664062,162.029300,34.564454,161.408203,34.365234 C160.787106,34.166015,160.230471,33.878908,159.738281,33.503906 C158.730464,32.707027,158.226562,31.728521,158.226562,30.568359 C158.226562,29.408197,158.414061,28.429691,158.789062,27.632812 C159.164064,26.835934,159.714840,26.156253,160.441406,25.593750 C161.964851,24.374994,164.121080,23.765625,166.910156,23.765625 C169.582045,23.765625,171.339840,24.843739,172.183594,27.000000 C172.441408,27.609378,172.570312,28.294918,172.570312,29.056641 C172.570312,29.818363,172.265628,30.550778,171.656250,31.253906 C171.046872,31.957035,170.285161,32.566404,169.371094,33.082031 Z M152.601562,71.683594 C151.851559,74.542983,151.171878,77.080067,150.562500,79.294922 C149.953122,81.509777,149.279301,83.378899,148.541016,84.902344 C147.802731,86.425789,146.923833,87.585934,145.904297,88.382812 C144.884761,89.179691,143.742194,89.578125,142.476562,89.578125 C141.210931,89.578125,140.191410,89.437501,139.417969,89.156250 C138.644527,88.874999,137.953128,88.523440,137.343750,88.101562 C136.124994,87.234371,135.304690,86.261724,134.882812,85.183594 C136.710947,83.730461,141.386681,75.515700,148.910156,60.539062 C153.152365,52.078083,156.234365,46.148454,158.156250,42.750000 C158.953129,41.320305,159.984369,40.605469,161.250000,40.605469 C161.976566,40.605469,162.808589,40.851560,163.746094,41.343750 C160.300764,48.164097,157.417980,55.359337,155.097656,62.929688 C159.667992,62.132809,163.957011,60.000017,167.964844,56.531250 C169.207037,55.453120,170.214840,54.328131,170.988281,53.156250 C172.042974,53.085937,172.570312,53.519527,172.570312,54.457031 C172.570312,54.832033,172.283206,55.710931,171.708984,57.093750 C171.134763,58.476569,170.144538,60.070303,168.738281,61.875000 C167.332024,63.679697,165.761727,65.249993,164.027344,66.585938 C160.605452,69.234388,156.796896,70.933590,152.601562,71.683594 Z"></path>
    <path d="M196.300781,42.960938 C195.011712,42.867187,193.757819,42.890624,192.539062,43.031250 C192.539062,43.265626,192.539062,43.675778,192.539062,44.261719 C192.539062,44.847659,192.621093,45.726557,192.785156,46.898438 C192.949220,48.070318,193.148436,49.359368,193.382812,50.765625 C194.039066,54.750020,194.367188,57.445305,194.367188,58.851562 C194.367188,60.257820,194.273438,61.406246,194.085938,62.296875 C197.625018,61.406246,200.871079,59.367203,203.824219,56.179688 C204.714848,55.218745,205.511715,54.210943,206.214844,53.156250 C206.894535,53.109375,207.328124,53.232420,207.515625,53.525391 C207.703126,53.818361,207.796875,54.128905,207.796875,54.457031 C207.796875,54.785158,207.527346,55.582025,206.988281,56.847656 C206.449216,58.113288,205.423836,59.707022,203.912109,61.628906 C202.400383,63.550791,200.519543,65.285149,198.269531,66.832031 C193.183568,70.324236,187.066442,72.093750,179.917969,72.140625 C179.261715,72.187500,178.312506,72.210938,177.070312,72.210938 C175.828119,72.210938,174.457039,71.865238,172.957031,71.173828 C171.457024,70.482418,170.179693,69.539068,169.125000,68.343750 C166.945302,65.882800,165.855469,62.730488,165.855469,58.886719 C165.855469,57.292961,167.062488,55.500010,169.476562,53.507812 C170.156253,52.945310,170.835934,52.453127,171.515625,52.031250 C173.859387,48.515607,177.193338,45.468763,181.517578,42.890625 C185.841818,40.312487,189.890606,39.023438,193.664062,39.023438 C195.023444,39.023438,195.960935,39.398434,196.476562,40.148438 C197.039065,40.945316,196.980472,41.882807,196.300781,42.960938 Z M178.617188,59.308594 C179.132815,59.707033,179.707028,59.906250,180.339844,59.906250 C180.972659,59.906250,181.593747,59.660159,182.203125,59.167969 C182.812503,58.675779,183.369138,58.019535,183.873047,57.199219 C184.376956,56.378902,184.822264,55.429693,185.208984,54.351562 C185.595705,53.273432,185.941405,52.148443,186.246094,50.976562 C186.761721,49.007803,187.277341,46.675795,187.792969,43.980469 C183.832011,45.199225,180.328140,47.132799,177.281250,49.781250 C176.367183,50.601567,175.570316,51.433590,174.890625,52.277344 C175.710942,55.652361,176.953117,57.996087,178.617188,59.308594 Z"></path>
  </g>
</svg>